<svg width="22" height="13" viewBox="0 0 22 13" fill="none" xmlns="http://www.w3.org/2000/svg">
<path d="M3.104 5.984C2.50667 5.74933 2.048 5.408 1.728 4.96C1.408 4.512 1.248 3.968 1.248 3.328C1.248 2.752 1.392 2.23467 1.68 1.776C1.968 1.30667 2.39467 0.938666 2.96 0.672C3.536 0.394666 4.22933 0.256 5.04 0.256C5.85067 0.256 6.53867 0.394666 7.104 0.672C7.68 0.938666 8.112 1.30667 8.4 1.776C8.69867 2.23467 8.848 2.752 8.848 3.328C8.848 3.94667 8.68267 4.49067 8.352 4.96C8.02133 5.41867 7.568 5.76 6.992 5.984C7.65333 6.18667 8.176 6.544 8.56 7.056C8.95467 7.55733 9.152 8.16533 9.152 8.88C9.152 9.57333 8.98133 10.1813 8.64 10.704C8.29867 11.216 7.81333 11.616 7.184 11.904C6.56533 12.1813 5.85067 12.32 5.04 12.32C4.22933 12.32 3.51467 12.1813 2.896 11.904C2.288 11.616 1.81333 11.216 1.472 10.704C1.13067 10.1813 0.96 9.57333 0.96 8.88C0.96 8.16533 1.152 7.552 1.536 7.04C1.92 6.528 2.44267 6.176 3.104 5.984ZM7.44 3.504C7.44 2.85333 7.22667 2.352 6.8 2C6.37333 1.648 5.78667 1.472 5.04 1.472C4.304 1.472 3.72267 1.648 3.296 2C2.86933 2.352 2.656 2.85867 2.656 3.52C2.656 4.11733 2.87467 4.59733 3.312 4.96C3.76 5.32267 4.336 5.504 5.04 5.504C5.75467 5.504 6.33067 5.32267 6.768 4.96C7.216 4.58667 7.44 4.10133 7.44 3.504ZM5.04 6.624C4.25067 6.624 3.60533 6.81067 3.104 7.184C2.60267 7.54667 2.352 8.096 2.352 8.832C2.352 9.51467 2.592 10.064 3.072 10.48C3.56267 10.896 4.21867 11.104 5.04 11.104C5.86133 11.104 6.512 10.896 6.992 10.48C7.472 10.064 7.712 9.51467 7.712 8.832C7.712 8.11733 7.46667 7.57333 6.976 7.2C6.48533 6.816 5.84 6.624 5.04 6.624ZM11.7898 12.096C11.5124 12.096 11.2778 12 11.0858 11.808C10.8938 11.616 10.7978 11.3813 10.7978 11.104C10.7978 10.8267 10.8938 10.592 11.0858 10.4C11.2778 10.208 11.5124 10.112 11.7898 10.112C12.0564 10.112 12.2804 10.208 12.4618 10.4C12.6538 10.592 12.7498 10.8267 12.7498 11.104C12.7498 11.3813 12.6538 11.616 12.4618 11.808C12.2804 12 12.0564 12.096 11.7898 12.096ZM14.4131 3.344C14.4878 2.36267 14.8665 1.59467 15.5491 1.04C16.2318 0.485332 17.1171 0.207999 18.2051 0.207999C18.9305 0.207999 19.5545 0.341333 20.0771 0.608C20.6105 0.864 21.0105 1.216 21.2771 1.664C21.5545 2.112 21.6931 2.61867 21.6931 3.184C21.6931 3.84533 21.5011 4.416 21.1171 4.896C20.7438 5.376 20.2531 5.68533 19.6451 5.824V5.904C20.3385 6.07467 20.8878 6.41067 21.2931 6.912C21.6985 7.41333 21.9011 8.06933 21.9011 8.88C21.9011 9.488 21.7625 10.0373 21.4851 10.528C21.2078 11.008 20.7918 11.3867 20.2371 11.664C19.6825 11.9413 19.0158 12.08 18.2371 12.08C17.1065 12.08 16.1785 11.7867 15.4531 11.2C14.7278 10.6027 14.3225 9.76 14.2371 8.672H15.6451C15.7198 9.312 15.9811 9.83467 16.4291 10.24C16.8771 10.6453 17.4745 10.848 18.2211 10.848C18.9678 10.848 19.5331 10.656 19.9171 10.272C20.3118 9.87733 20.5091 9.37067 20.5091 8.752C20.5091 7.952 20.2425 7.376 19.7091 7.024C19.1758 6.672 18.3705 6.496 17.2931 6.496H16.9251V5.28H17.3091C18.2905 5.26933 19.0318 5.10933 19.5331 4.8C20.0345 4.48 20.2851 3.98933 20.2851 3.328C20.2851 2.76267 20.0985 2.30933 19.7251 1.968C19.3625 1.62667 18.8398 1.456 18.1571 1.456C17.4958 1.456 16.9625 1.62667 16.5571 1.968C16.1518 2.30933 15.9118 2.768 15.8371 3.344H14.4131Z" fill="#FFAD49"/>
</svg>
